<svg width="118" height="111" viewBox="0 0 118 111" fill="none" xmlns="http://www.w3.org/2000/svg">
<path d="M83.8871 36.075L58.9121 111C59.7739 111 60.5869 110.6 61.1112 109.917L117.824 36.1904L117.751 36.075H83.8871Z" fill="#FFDAEB"/>
<path d="M117.751 36.075L94.9867 0L83.8867 36.075H117.751Z" fill="#FF9CCA"/>
<path d="M22.8374 0L0.0732422 36.075H33.9374L22.8374 0Z" fill="#FFF2F8"/>
<path d="M0.0728434 36.075L0 36.1905L56.7129 109.917C57.2373 110.6 58.0503 111 58.912 111L33.937 36.075H0.0728434Z" fill="#FFDAEB"/>
<path d="M58.9119 0H22.8369L33.9369 36.075L58.9119 0Z" fill="#FFDAEB"/>
<path d="M33.9365 36.075L58.9115 111L83.8865 36.075H33.9365Z" fill="#FF9CCA"/>
<path d="M94.9871 0H58.9121L83.8871 36.075L94.9871 0Z" fill="#FFDAEB"/>
<path d="M83.8865 36.075L58.9115 0L33.9365 36.075H83.8865Z" fill="#FFF2F8"/>
</svg>
