<svg width="56" height="56" viewBox="0 0 56 56" fill="none" xmlns="http://www.w3.org/2000/svg">
<rect width="56" height="56" rx="28" fill="#FF6AAF"/>
<path d="M25.4467 32.78L27.3333 34.6667L34 28L27.3333 21.3333L25.4467 23.22L28.8933 26.6667H16V29.3333H28.8933L25.4467 32.78ZM37.3333 16H18.6667C17.1933 16 16 17.1933 16 18.6667V24H18.6667V18.6667H37.3333V37.3333H18.6667V32H16V37.3333C16 38.8067 17.1933 40 18.6667 40H37.3333C38.8067 40 40 38.8067 40 37.3333V18.6667C40 17.1933 38.8067 16 37.3333 16Z" fill="white"/>
</svg>
