<svg width="56" height="56" viewBox="0 0 56 56" fill="none" xmlns="http://www.w3.org/2000/svg">
<rect width="56" height="56" rx="28" fill="#FF9CCA"/>
<path d="M38.7357 29.4625C38.7957 28.9825 38.8407 28.495 38.8407 28C38.8407 27.505 38.7957 27.0175 38.7357 26.5375L41.9082 24.055C42.1932 23.83 42.2757 23.425 42.0882 23.095L39.0882 17.8975C38.9007 17.575 38.5107 17.44 38.1732 17.575L34.4382 19.0825C33.6657 18.49 32.8182 17.9875 31.9032 17.605L31.3407 13.63C31.2732 13.2775 30.9657 13 30.5907 13H24.5907C24.2157 13 23.9082 13.2775 23.8482 13.63L23.2857 17.605C22.3707 17.9875 21.5232 18.4825 20.7507 19.0825L17.0157 17.575C16.6782 17.4475 16.2882 17.575 16.1007 17.8975L13.1007 23.095C12.9132 23.4175 12.9957 23.8225 13.2807 24.055L16.4457 26.5375C16.3857 27.0175 16.3407 27.505 16.3407 28C16.3407 28.495 16.3857 28.9825 16.4457 29.4625L13.2807 31.945C12.9957 32.17 12.9132 32.575 13.1007 32.905L16.1007 38.1025C16.2882 38.425 16.6782 38.56 17.0157 38.425L20.7507 36.9175C21.5232 37.51 22.3707 38.0125 23.2857 38.395L23.8482 42.37C23.9082 42.7225 24.2157 43 24.5907 43H30.5907C30.9657 43 31.2732 42.7225 31.3332 42.37L31.8957 38.395C32.8107 38.0125 33.6582 37.5175 34.4307 36.9175L38.1657 38.425C38.5032 38.5525 38.8932 38.425 39.0807 38.1025L42.0807 32.905C42.2682 32.5825 42.1857 32.1775 41.9007 31.945L38.7357 29.4625ZM27.5907 33.25C24.6882 33.25 22.3407 30.9025 22.3407 28C22.3407 25.0975 24.6882 22.75 27.5907 22.75C30.4932 22.75 32.8407 25.0975 32.8407 28C32.8407 30.9025 30.4932 33.25 27.5907 33.25Z" fill="white"/>
</svg>
