<svg width="145" height="142" viewBox="0 0 145 142" fill="none" xmlns="http://www.w3.org/2000/svg">
<path d="M89.6061 21.6873L74.5918 66.7303C75.1099 66.7303 75.5986 66.49 75.9139 66.0795L110.008 21.7567L109.964 21.6873H89.6061Z" fill="#FFDAEB"/>
<path d="M109.965 21.6874L96.2795 0L89.6064 21.6874H109.965Z" fill="#FF9CCA"/>
<path d="M52.905 0L39.2197 21.6874H59.578L52.905 0Z" fill="#FFF2F8"/>
<path d="M39.2196 21.6873L39.1758 21.7567L73.2702 66.0795C73.5854 66.49 74.0742 66.7303 74.5922 66.7303L59.5779 21.6873H39.2196Z" fill="#FFDAEB"/>
<path d="M74.5917 0H52.9043L59.5773 21.6874L74.5917 0Z" fill="#FFDAEB"/>
<path d="M59.5771 21.6873L74.5915 66.7303L89.6059 21.6873H59.5771Z" fill="#FF9CCA"/>
<path d="M96.2792 0H74.5918L89.6061 21.6874L96.2792 0Z" fill="#FFDAEB"/>
<path d="M89.6059 21.6874L74.5915 0L59.5771 21.6874H89.6059Z" fill="#FFF2F8"/>
<path d="M123.774 96.8984L108.76 141.941C109.278 141.941 109.767 141.701 110.082 141.291L144.176 96.9679L144.132 96.8984H123.774Z" fill="#FFDAEB"/>
<path d="M144.132 96.8986L130.446 75.2112L123.773 96.8986H144.132Z" fill="#FF9CCA"/>
<path d="M87.072 75.2112L73.3867 96.8986H93.745L87.072 75.2112Z" fill="#FFF2F8"/>
<path d="M73.3866 96.8984L73.3428 96.9679L107.437 141.291C107.752 141.701 108.241 141.941 108.759 141.941L93.7449 96.8984H73.3866Z" fill="#FFDAEB"/>
<path d="M108.759 75.2112H87.0713L93.7443 96.8986L108.759 75.2112Z" fill="#FFDAEB"/>
<path d="M93.7441 96.8984L108.758 141.941L123.773 96.8984H93.7441Z" fill="#FF9CCA"/>
<path d="M130.447 75.2112H108.76L123.774 96.8986L130.447 75.2112Z" fill="#FFDAEB"/>
<path d="M123.773 96.8986L108.758 75.2112L93.7441 96.8986H123.773Z" fill="#FFF2F8"/>
<path d="M50.4304 84.875L35.416 129.918C35.9341 129.918 36.4228 129.678 36.7381 129.267L70.8325 84.9444L70.7887 84.875H50.4304Z" fill="#FFDAEB"/>
<path d="M70.789 84.8751L57.1037 63.1877L50.4307 84.8751H70.789Z" fill="#FF9CCA"/>
<path d="M13.7292 63.1877L0.0439453 84.8751H20.4023L13.7292 63.1877Z" fill="#FFF2F8"/>
<path d="M0.0437917 84.875L0 84.9444L34.0944 129.267C34.4096 129.678 34.8984 129.918 35.4165 129.918L20.4021 84.875H0.0437917Z" fill="#FFDAEB"/>
<path d="M35.4159 63.1877H13.7285L20.4016 84.8751L35.4159 63.1877Z" fill="#FFDAEB"/>
<path d="M20.4014 84.875L35.4157 129.918L50.4301 84.875H20.4014Z" fill="#FF9CCA"/>
<path d="M57.1034 63.1877H35.416L50.4304 84.8751L57.1034 63.1877Z" fill="#FFDAEB"/>
<path d="M50.4301 84.8751L35.4157 63.1877L20.4014 84.8751H50.4301Z" fill="#FFF2F8"/>
</svg>
