<svg width="132" height="120" viewBox="0 0 132 120" fill="none" xmlns="http://www.w3.org/2000/svg">
<path d="M110.774 74.8984L95.7598 119.941C96.2778 119.941 96.7666 119.701 97.0818 119.291L131.176 74.9679L131.132 74.8984H110.774Z" fill="#FFDAEB"/>
<path d="M131.132 74.8986L117.446 53.2112L110.773 74.8986H131.132Z" fill="#FF9CCA"/>
<path d="M74.072 53.2112L60.3867 74.8986H80.745L74.072 53.2112Z" fill="#FFF2F8"/>
<path d="M60.3866 74.8984L60.3428 74.9679L94.4371 119.291C94.7524 119.701 95.2412 119.941 95.7592 119.941L80.7449 74.8984H60.3866Z" fill="#FFDAEB"/>
<path d="M95.7587 53.2112H74.0713L80.7443 74.8986L95.7587 53.2112Z" fill="#FFDAEB"/>
<path d="M80.7441 74.8984L95.7585 119.941L110.773 74.8984H80.7441Z" fill="#FF9CCA"/>
<path d="M117.447 53.2112H95.7598L110.774 74.8986L117.447 53.2112Z" fill="#FFDAEB"/>
<path d="M110.773 74.8986L95.7585 53.2112L80.7441 74.8986H110.773Z" fill="#FFF2F8"/>
<path d="M50.4304 21.6873L35.416 66.7303C35.9341 66.7303 36.4228 66.49 36.7381 66.0795L70.8325 21.7567L70.7887 21.6873H50.4304Z" fill="#FFDAEB"/>
<path d="M70.789 21.6874L57.1037 0L50.4307 21.6874H70.789Z" fill="#FF9CCA"/>
<path d="M13.7292 0L0.0439453 21.6874H20.4023L13.7292 0Z" fill="#FFF2F8"/>
<path d="M0.0437917 21.6873L0 21.7567L34.0944 66.0795C34.4096 66.49 34.8984 66.7303 35.4165 66.7303L20.4021 21.6873H0.0437917Z" fill="#FFDAEB"/>
<path d="M35.4159 0H13.7285L20.4016 21.6874L35.4159 0Z" fill="#FFDAEB"/>
<path d="M20.4014 21.6873L35.4157 66.7303L50.4301 21.6873H20.4014Z" fill="#FF9CCA"/>
<path d="M57.1034 0H35.416L50.4304 21.6874L57.1034 0Z" fill="#FFDAEB"/>
<path d="M50.4301 21.6874L35.4157 0L20.4014 21.6874H50.4301Z" fill="#FFF2F8"/>
</svg>
